# xmcd
#
# Track frame offsets:
#	150
#	14141
#	26386
#	39398
#	57478
#	75752
#	89063
#	103570
#	119368
#	129072
#	145945
#	163448
#	177799
#	190259
#
# Disc length: 2705 seconds
#
# Revision: 1
# Processed by: cddbd v1.5.2PL0 Copyright (c) Steve Scherf et al.
# Submitted via: audiograbber 1.83.01
#
DISCID=b60a8f0e
DTITLE=The Koi Boys - Shake It!
DYEAR=1900
DGENRE=
TTITLE0=Hey Senorita
TTITLE1=Goody Goody
TTITLE2=Cherry Lips
TTITLE3=Love N Touch
TTITLE4=Smile
TTITLE5=Conversation
TTITLE6=Shake It
TTITLE7=Hey Little Girl
TTITLE8=I'm Counting On You
TTITLE9=Let True Love Begin
TTITLE10=How Many Times
TTITLE11=Shining Star
TTITLE12=Sh Boom
TTITLE13=Love You Most Of All
EXTD=
EXTT0=
EXTT1=
EXTT2=
EXTT3=
EXTT4=
EXTT5=
EXTT6=
EXTT7=
EXTT8=
EXTT9=
EXTT10=
EXTT11=
EXTT12=
EXTT13=
PLAYORDER=
